<?xml version="1.0" encoding="UTF-8" standalone="no"?>
<svg
   viewBox="0 0 32 32"
   version="1.1"
   id="svg12"
   sodipodi:docname="favicon.svg"
   inkscape:version="1.2.1 (9c6d41e410, 2022-07-14)"
   xmlns:inkscape="http://www.inkscape.org/namespaces/inkscape"
   xmlns:sodipodi="http://sodipodi.sourceforge.net/DTD/sodipodi-0.dtd"
   xmlns="http://www.w3.org/2000/svg"
   xmlns:svg="http://www.w3.org/2000/svg">
  <defs
     id="defs16" />
  <sodipodi:namedview
     id="namedview14"
     pagecolor="#ffffff"
     bordercolor="#000000"
     borderopacity="0.25"
     inkscape:showpageshadow="2"
     inkscape:pageopacity="0.0"
     inkscape:pagecheckerboard="0"
     inkscape:deskcolor="#d1d1d1"
     showgrid="false"
     inkscape:zoom="26.6875"
     inkscape:cx="10.023419"
     inkscape:cy="16"
     inkscape:window-width="1920"
     inkscape:window-height="1009"
     inkscape:window-x="1432"
     inkscape:window-y="1121"
     inkscape:window-maximized="1"
     inkscape:current-layer="svg12" />
  <circle
     cx="16"
     cy="16"
     r="15"
     fill="#1a1a2e"
     stroke="#e94560"
     stroke-width="2"
     id="circle2" />
  <circle
     cx="16"
     cy="16"
     r="4"
     fill="#e94560"
     id="circle4" />
  <path
     d="M16 12a4 4 0 0 1 0 8"
     fill="none"
     stroke="#e94560"
     stroke-width="1.5"
     stroke-linecap="round"
     id="path6" />
  <path
     d="M16 8a8 8 0 0 1 0 16"
     fill="none"
     stroke="#e94560"
     stroke-width="1.5"
     stroke-linecap="round"
     id="path8" />
  <path
     d="M16 4a12 12 0 0 1 0 24"
     fill="none"
     stroke="#e94560"
     stroke-width="1.5"
     stroke-linecap="round"
     id="path10" />
  <path
     style="fill:#008000;fill-opacity:1;stroke-width:0.0374707"
     d="M 15.306792,31.960003 C 13.094937,31.870566 10.882694,31.297685 8.8805621,30.295871 8.1172598,29.913934 7.7423719,29.694862 7.0402451,29.220449 5.0911326,27.903474 3.3895921,26.086802 2.1970236,24.049521 1.1724239,22.299182 0.44269778,20.182283 0.17140549,18.173302 0.01916776,17.045947 -0.01261932,15.577552 0.09188801,14.500013 0.67725819,8.4644628 4.5843882,3.2992375 10.222453,1.1074073 c 2.067996,-0.80394547 4.210958,-1.15721898 6.461388,-1.06517865 5.07696,0.20764255 9.779516,2.85455165 12.606809,7.09594465 1.625191,2.438047 2.560412,5.3073157 2.665565,8.1779857 0.104625,2.856249 -0.451271,5.413272 -1.720873,7.915691 -1.235731,2.43566 -3.042912,4.48674 -5.279838,5.99241 -0.703952,0.473828 -1.079859,0.693224 -1.836066,1.071611 -1.940287,0.970868 -4.21559,1.574542 -6.216593,1.649361 -0.280171,0.01047 -0.610573,0.02388 -0.734227,0.02979 -0.123653,0.0059 -0.511475,-8.5e-4 -0.861826,-0.01502 z m 1.76845,-1.985499 c 4.602951,-0.379405 8.593316,-2.853172 10.964021,-6.796979 1.020035,-1.69689 1.658201,-3.615477 1.907559,-5.734902 0.07398,-0.628781 0.06203,-2.419257 -0.0205,-3.0726 C 29.522887,11.176478 28.146563,8.3307241 25.931686,6.1105315 22.780854,2.9521395 18.380371,1.4920196 13.954636,2.1364391 7.096984,3.1349638 1.9907822,9.0434481 1.9863351,15.985191 c -0.00468,7.305951 5.5738485,13.368175 12.8708079,13.986793 0.549712,0.0466 1.667872,0.04787 2.218099,0.0025 z"
     id="path536" />
  <path
     style="fill:#008000;fill-opacity:1;stroke-width:0.0374707"
     d="m 15.662763,20.637731 c -0.19816,-0.106774 -0.365202,-0.352366 -0.386313,-0.567975 l -0.01427,-0.1457 -0.314933,-0.08937 C 13.211677,19.342179 12.028103,17.787399 12.028103,16 c 0,-1.789498 1.180633,-3.340354 2.919148,-3.834535 l 0.314933,-0.08952 0.01427,-0.1457 c 0.02106,-0.215128 0.188244,-0.461565 0.382839,-0.564337 0.1341,-0.07082 0.222987,-0.08722 0.472844,-0.08722 1.134916,0 2.339584,0.520829 3.203966,1.385212 0.904112,0.904111 1.385212,2.06219 1.385212,3.334404 0,1.272723 -0.48231,2.434893 -1.385212,3.337794 -0.832302,0.832303 -1.926737,1.324167 -3.055069,1.37302 -0.424016,0.01836 -0.45926,0.01429 -0.618267,-0.07139 z"
     id="path538" />
  <path
     style="fill:#008000;fill-opacity:1;stroke-width:0.0374707"
     d="M 15.737705,24.67383 C 15.442711,24.539551 15.282703,24.30259 15.282703,24 c 0,-0.435841 0.33271,-0.730679 0.824535,-0.730679 0.974667,0 2.158291,-0.28638 3.096509,-0.749205 2.094185,-1.033068 3.536554,-2.956896 3.961306,-5.283582 0.112939,-0.618649 0.112939,-1.854419 0,-2.473068 C 22.780076,12.65466 21.546478,10.858873 19.728337,9.7605352 18.69059,9.1336322 17.273758,8.7306792 16.107238,8.7306792 15.615413,8.7306792 15.282703,8.4358414 15.282703,8 c 0,-0.2342991 0.06515,-0.3769535 0.243785,-0.5337966 0.204913,-0.1799158 0.351403,-0.2108383 0.873466,-0.1843788 1.228675,0.062272 2.342439,0.349578 3.440795,0.8875853 2.589544,1.2684344 4.354318,3.6914691 4.802662,6.5940561 0.09242,0.598358 0.09242,1.87471 0,2.473068 -0.551033,3.567398 -3.128111,6.403562 -6.582521,7.244295 -0.862417,0.209895 -2.066345,0.309913 -2.323185,0.193001 z"
     id="path540" />
  <path
     style="fill:#008000;fill-opacity:1;stroke-width:0.0374707"
     d="m 15.761115,28.687695 c -0.42872,-0.160778 -0.610178,-0.662591 -0.381003,-1.053648 0.17228,-0.293975 0.266338,-0.325787 1.123177,-0.379885 0.902991,-0.05701 1.569117,-0.157336 2.332342,-0.351272 3.887458,-0.987807 7.027039,-4.104168 8.049217,-7.989686 C 28.061745,14.439566 26.442883,9.7559157 22.763466,6.9893265 21.476951,6.0219833 20.036918,5.3567026 18.473068,5.0072057 17.839537,4.865621 17.345505,4.8002103 16.503289,4.7464031 15.834393,4.7036689 15.736031,4.6889184 15.613028,4.6128984 15.218538,4.36909 15.167128,3.7828662 15.512847,3.4705301 c 0.211624,-0.1911896 0.376796,-0.2233425 0.993008,-0.1933027 3.290185,0.160394 6.207102,1.4452083 8.506893,3.7470308 2.845733,2.8482458 4.165002,6.8457998 3.578356,10.8428728 -0.42146,2.871592 -1.847042,5.554352 -3.991572,7.511624 -2.268753,2.070648 -5.074891,3.218865 -8.168619,3.342441 -0.407883,0.01629 -0.556894,0.0088 -0.669798,-0.0335 z"
     id="path542" />
  <path
     style="fill:#e9ff04;fill-opacity:0.68393785;stroke-width:0.0374707"
     d="M 15.081967,29.954662 C 13.948516,29.844403 13.325253,29.742843 12.533958,29.539466 10.546442,29.028639 8.6496959,28.06088 7.059393,26.746229 6.5867515,26.355512 5.6826223,25.45369 5.3016521,24.992974 3.5171624,22.83495 2.4833056,20.449243 2.1108638,17.629977 2.0176969,16.924733 2.0179088,15.094863 2.1112413,14.370023 2.4206609,11.967009 3.2647192,9.7841027 4.612474,7.9013295 6.9323207,4.6605728 10.329346,2.6446612 14.370023,2.1108638 c 0.705244,-0.093167 2.535114,-0.092955 3.259954,3.776e-4 2.409662,0.3102754 4.550639,1.1390985 6.47739,2.5075508 0.677301,0.4810456 1.132339,0.8689729 1.787597,1.5239578 1.796582,1.7958317 3.045061,4.002558 3.665123,6.478217 0.302552,1.207971 0.397329,2.013988 0.397329,3.379033 0,1.365518 -0.09476,2.170986 -0.397681,3.380435 -1.154329,4.608751 -4.533052,8.288677 -9.035129,9.840584 -0.907458,0.312808 -1.831129,0.525759 -2.884317,0.664972 -0.399823,0.05285 -2.218989,0.10168 -2.558322,0.06867 z m 2.379391,-1.27533 c 3.494938,-0.390436 6.644646,-2.210349 8.807494,-5.089004 1.101284,-1.465761 1.924854,-3.355058 2.279685,-5.229672 0.279639,-1.477362 0.279394,-3.254632 -6.51e-4,-4.721312 -0.549244,-2.876563 -2.035765,-5.4452393 -4.248514,-7.3413401 -2.214475,-1.8975804 -5.111288,-3.0094772 -7.9434,-3.0489519 -0.522686,-0.00729 -0.573353,-0.00181 -0.723245,0.078223 -0.238278,0.1272175 -0.382142,0.3731119 -0.382142,0.6531614 0,0.2731521 0.06313,0.4275422 0.237357,0.5805195 0.184034,0.1615841 0.304483,0.1866663 1.122867,0.2338268 1.616002,0.093124 3.021142,0.4667833 4.452614,1.1840519 2.078782,1.0416172 3.870393,2.8277073 4.939071,4.9238504 1.429187,2.803258 1.616901,6.036624 0.523254,9.013006 -0.353739,0.962706 -1.025489,2.154544 -1.721236,3.053864 -0.331172,0.428072 -1.318216,1.424283 -1.760016,1.77636 -0.492124,0.392183 -1.354403,0.951648 -1.892311,1.227771 -1.454172,0.746468 -2.892492,1.136512 -4.541376,1.231531 -0.818384,0.04716 -0.938833,0.07224 -1.122867,0.233827 -0.174231,0.152977 -0.237357,0.307367 -0.237357,0.580519 0,0.351304 0.196962,0.605534 0.561819,0.725172 0.124157,0.04071 1.015566,0.0054 1.648954,-0.0654 z m -0.196951,-4.005248 c 1.881212,-0.270801 3.616804,-1.153877 4.982586,-2.535159 0.651241,-0.658631 1.135515,-1.325612 1.543459,-2.125775 0.469618,-0.921134 0.732869,-1.74216 0.890283,-2.776616 0.09118,-0.599221 0.09187,-1.879342 0.0013,-2.473068 -0.239293,-1.56902 -0.883763,-3.057144 -1.841838,-4.252927 -0.289229,-0.36099 -0.952188,-1.0267267 -1.31328,-1.3187826 -1.45414,-1.1761277 -3.255307,-1.8574471 -5.150024,-1.9480768 -0.52262,-0.024999 -0.67574,0.00411 -0.866622,0.1647225 -0.439228,0.369585 -0.298795,1.1530469 0.235835,1.3157069 0.0675,0.020538 0.333504,0.047369 0.591116,0.059624 2.674921,0.1272577 5.007622,1.678806 6.18173,4.111651 1.303325,2.700591 0.782137,5.924404 -1.309834,8.101989 -0.619064,0.644399 -1.209283,1.075492 -2.031591,1.483862 -0.958847,0.476178 -2.088252,0.750615 -3.089039,0.750615 -0.519291,0 -0.837918,0.292096 -0.837918,0.76815 0,0.326946 0.159347,0.578894 0.449917,0.711376 0.107106,0.04883 0.224425,0.05614 0.645873,0.0402 0.283246,-0.01071 0.69636,-0.04558 0.918032,-0.07749 z M 16.78965,20.699366 c 2.290333,-0.385274 3.969786,-2.371898 3.968982,-4.694907 -5.66e-4,-1.634466 -0.795997,-3.106096 -2.163729,-4.003121 -0.72086,-0.472776 -1.656133,-0.760958 -2.463755,-0.759147 -0.53859,0.0012 -0.880563,0.268329 -0.880563,0.687823 0,0.120401 -0.0032,0.122623 -0.271662,0.185908 -0.664939,0.156776 -1.272284,0.513107 -1.826698,1.071727 -0.599404,0.603951 -0.916282,1.194617 -1.08817,2.028369 -0.110798,0.537428 -0.08943,1.269142 0.05289,1.811752 0.36091,1.375917 1.529434,2.542128 2.861973,2.856308 0.268415,0.06329 0.271662,0.06551 0.271662,0.185908 0,0.259749 0.163301,0.493856 0.430914,0.617757 0.191243,0.08854 0.623912,0.09308 1.108151,0.01162 z"
     id="path615" />
</svg>
